<svg width="100" height="100" viewBox="0 0 100 100" fill="none" xmlns="http://www.w3.org/2000/svg">
<path d="M50 0C22.3858 0 0 22.3858 0 50C0 77.6142 22.3858 100 50 100C77.6142 100 100 77.6142 100 50C100 22.3858 77.6142 0 50 0ZM50 88.2353C28.8912 88.2353 11.7647 71.1088 11.7647 50C11.7647 28.8912 28.8912 11.7647 50 11.7647C71.1088 11.7647 88.2353 28.8912 88.2353 50C88.2353 71.1088 71.1088 88.2353 50 88.2353Z" fill="#007BFF"/>
<path d="M50 23.5294C35.402 23.5294 23.5294 35.402 23.5294 50C23.5294 64.598 35.402 76.4706 50 76.4706C64.598 76.4706 76.4706 64.598 76.4706 50C76.4706 35.402 64.598 23.5294 50 23.5294ZM50 64.7059C41.8824 64.7059 35.2941 58.1176 35.2941 50C35.2941 41.8824 41.8824 35.2941 50 35.2941C58.1176 35.2941 64.7059 41.8824 64.7059 50C64.7059 58.1176 58.1176 64.7059 50 64.7059Z" fill="#007BFF"/>
</svg>
